/* XPM */
static char * start_xpm[] = {
"50 20 93 2",
"  	c #FFFFFF",
". 	c #D0D0D0",
"+ 	c #808080",
"@ 	c #CECECE",
"# 	c #757474",
"$ 	c #747474",
"% 	c #797979",
"& 	c #CBCBCB",
"* 	c #787777",
"= 	c #8E8E8E",
"- 	c #B4B4B4",
"; 	c #B0B0B0",
"> 	c #6C6C6C",
", 	c #6B6B6B",
"' 	c #9E9E9E",
") 	c #878787",
"! 	c #6A6969",
"~ 	c #BCBCBC",
"{ 	c #929292",
"] 	c #2A2A2A",
"^ 	c #282727",
"/ 	c #2D2C2C",
"( 	c #3A3A3A",
"_ 	c #C9C9C9",
": 	c #525151",
"< 	c #CDCDCD",
"[ 	c #C6C6C6",
"} 	c #828282",
"| 	c #757575",
"1 	c #CACACA",
"2 	c #A6A6A6",
"3 	c #BFBFBF",
"4 	c #353434",
"5 	c #5B5B5B",
"6 	c #C5C5C5",
"7 	c #616161",
"8 	c #313030",
"9 	c #595959",
"0 	c #727272",
"a 	c #A0A0A0",
"b 	c #6E6D6D",
"c 	c #B7B7B7",
"d 	c #9D9D9D",
"e 	c #B1B0B0",
"f 	c #777777",
"g 	c #ACACAC",
"h 	c #919191",
"i 	c #9C9C9C",
"j 	c #535252",
"k 	c #BABABA",
"l 	c #818181",
"m 	c #494949",
"n 	c #414040",
"o 	c #C3C3C3",
"p 	c #AFAFAF",
"q 	c #7A7979",
"r 	c #CFCFCF",
"s 	c #5E5E5E",
"t 	c #B1B1B1",
"u 	c #656565",
"v 	c #636262",
"w 	c #898989",
"x 	c #8C8B8B",
"y 	c #4F4F4F",
"z 	c #B5B5B5",
"A 	c #A5A5A5",
"B 	c #464646",
"C 	c #ABABAB",
"D 	c #A2A2A2",
"E 	c #3C3B3B",
"F 	c #7E7E7E",
"G 	c #626262",
"H 	c #393838",
"I 	c #BBBBBB",
"J 	c #5F5F5F",
"K 	c #8A8A8A",
"L 	c #A7A7A7",
"M 	c #C8C8C8",
"N 	c #727171",
"O 	c #CCCCCC",
"P 	c #5C5C5C",
"Q 	c #BEBEBE",
"R 	c #5D5D5D",
"S 	c #C2C2C2",
"T 	c #7A7A7A",
"U 	c #848383",
"V 	c #7B7B7B",
"W 	c #999999",
"X 	c #A8A8A8",
"Y 	c #BDBDBD",
"Z 	c #6F6E6E",
"` 	c #6F6F6F",
" .	c #908F8F",
"                                                                                                    ",
"  . . . . . . . . . . . . . . . . . . . . . . . . . . . . . . . . . . . . . . . . . . . . . . . . + ",
"  . . . . . . . . . . . . . . . . . . . . . . . . . . . . . . . . . . . . . . . . . . . . . . . . + ",
"  . . . . . . . . . . . . . . . . . . . . . . . . . . . . . . . . . . . . . . . . . . . . . . . . + ",
"  . @ # $ # . . . . . . % $ $ @ & $ $ $ $ $ $ * = - . . . . ; > , ' . ) ! ! ~ . . . . . . - { . . + ",
"  . @ ] ^ / . . . . . . ( ^ ] @ _ ^ ^ : < < < [ } ^ | 1 . . 2 ^ ^ = . 3 4 ^ 5 & . . . . 6 7 [ . . + ",
"  . @ 8 ^ / . . . . . . ( ^ ^ @ _ ^ ^ : . . . . @ 9 ^ 0 . . 2 ^ ^ = . . a ^ ^ ) . . . @ b c . . . + ",
"  . @ 8 ^ / . . . . . . ( ^ ] @ _ ^ ^ : . . . . . d ^ ^ e . 2 ^ ^ = . . . f ^ ^ g . . h i . . . . + ",
"  . @ 8 ^ / . . . . . . ( ^ ^ @ _ ^ ^ j . . . . . k ^ ^ l . 2 ^ ^ = . . . [ m ^ n o p q . . . . . + ",
"  . r 8 ^ / . . . . . . ( ^ ] @ _ ^ ^ j . . . . . 1 ^ ^ s . 2 ^ ^ = . . . . t ^ ^ u v _ . . . . . + ",
"  . r 8 ^ / . . . . . . ( ^ ^ @ _ ^ ^ j . . . . . @ ] ^ n . 2 ^ ^ = . . . . . w ^ ^ x . . . . . . + ",
"  . . y ^ ] @ . . . . . ( ^ ^ @ _ ^ ^ j . . . . . @ ] ^ n . 2 ^ ^ = . . . . & v ! ^ ^ z . . . . . + ",
"  . . q ^ ^ 3 . . . . . ( ^ ] @ _ ^ ^ : . . . . . @ ] ^ n . 2 ^ ^ = . . . . l A 6 B ^ y _ . . . . + ",
"  . . C ^ ^ D . . . . . ( ^ ^ @ _ ^ ^ : . . . . . @ ] ^ E . 2 ^ ^ = . . . D } . . ; ^ ^ F . . . . + ",
"  . . r > ^ G r . . . . ( ^ ] @ _ ^ ^ j . . . . . @ ] ^ H . 2 ^ ^ = . . I J & . . . K ^ ^ L . . . + ",
"  . . . M N ^ ) 6 O O O ( ^ ^ @ _ ^ ^ j . . . . . @ ] ^ H . 2 ^ ^ = . _ P Q . . . . O R ^ E S . . + ",
"  . . . . . - = T f f f f f f @ & f f U . . . . . r f f V . p ! ! ' . W X . . . . . . Y Z `  .. . + ",
"  . . . . . . . . . . . . . . . . . . . . . . . . . . . . . . . . . . . . . . . . . . . . . . . . + ",
"  . . . . . . . . . . . . . . . . . . . . . . . . . . . . . . . . . . . . . . . . . . . . . . . . + ",
"  + + + + + + + + + + + + + + + + + + + + + + + + + + + + + + + + + + + + + + + + + + + + + + + + + "};
