/* XPM */
static char * taskbuttonbg_xpm[] = {
"24 24 4 1",
" 	c #FFFFFF",
".	c #000000",
"+	c #D2D2D2",
"@	c #868686",
"                       .",
" +++++++++++++++++++++@.",
" +++++++++++++++++++++@.",
" +++++++++++++++++++++@.",
" +++++++++++++++++++++@.",
" +++++++++++++++++++++@.",
" +++++++++++++++++++++@.",
" +++++++++++++++++++++@.",
" +++++++++++++++++++++@.",
" +++++++++++++++++++++@.",
" +++++++++++++++++++++@.",
" +++++++++++++++++++++@.",
" +++++++++++++++++++++@.",
" +++++++++++++++++++++@.",
" +++++++++++++++++++++@.",
" +++++++++++++++++++++@.",
" +++++++++++++++++++++@.",
" +++++++++++++++++++++@.",
" +++++++++++++++++++++@.",
" +++++++++++++++++++++@.",
" +++++++++++++++++++++@.",
" +++++++++++++++++++++@.",
" @@@@@@@@@@@@@@@@@@@@@@.",
"........................"};
