/* XPM */
static char * maximizeI_xpm[] = {
"18 38 5 1",
" 	c #FFFFFF",
".	c #A6A6A6",
"+	c #C6C6C6",
"@	c #4C4C4C",
"#	c #D3D3D3",
"                 .",
" +++++++++++++++..",
" +++++++++++++++..",
" +++++++++++++++..",
" +++++++++++++++..",
" +++++++++++++++..",
" +++++++++++++++..",
" +++++++@+++++++..",
" ++++++@@@++++++..",
" +++++@@@@@+++++..",
" ++++@@@@@@@++++..",
" +++++++++++++++..",
" +++++++++++++++..",
" +++++++++++++++..",
" +++++++++++++++..",
" +++++++++++++++..",
" .................",
"..................",
"@@@@@@@@@@@@@@@@@@",
"................. ",
".###############  ",
".###############  ",
".###############  ",
".###############  ",
".###############  ",
".###############  ",
".#######@#######  ",
".######@@@######  ",
".#####@@@@@#####  ",
".####@@@@@@@####  ",
".###############  ",
".###############  ",
".###############  ",
".###############  ",
".###############  ",
".                 ",
"                  ",
"@@@@@@@@@@@@@@@@@@"};
