/* XPM */
static char * minimizeA_xpm[] = {
"20 38 4 1",
" 	c #4C4C4C",
".	c #FFFFFF",
"+	c #A6A6A6",
"@	c #D3D3D3",
" .................+ ",
" .@@@@@@@@@@@@@@@++ ",
" .@@@@@@@@@@@@@@@++ ",
" .@@@@@@@@@@@@@@@++ ",
" .@@@@@@@@@@@@@@@++ ",
" .@@@@@@@@@@@@@@@++ ",
" .@@@@@@@@@@@@@@@++ ",
" .@@@@       @@@@++ ",
" .@@@@@     @@@@@++ ",
" .@@@@@@   @@@@@@++ ",
" .@@@@@@@ @@@@@@@++ ",
" .@@@@@@@@@@@@@@@++ ",
" .@@@@@@@@@@@@@@@++ ",
" .@@@@@@@@@@@@@@@++ ",
" .@@@@@@@@@@@@@@@++ ",
" .@@@@@@@@@@@@@@@++ ",
" .+++++++++++++++++ ",
" ++++++++++++++++++ ",
"                    ",
" +++++++++++++++++. ",
" +@@@@@@@@@@@@@@@.. ",
" +@@@@@@@@@@@@@@@.. ",
" +@@@@@@@@@@@@@@@.. ",
" +@@@@@@@@@@@@@@@.. ",
" +@@@@@@@@@@@@@@@.. ",
" +@@@@@@@@@@@@@@@.. ",
" +@@@@       @@@@.. ",
" +@@@@@     @@@@@.. ",
" +@@@@@@   @@@@@@.. ",
" +@@@@@@@ @@@@@@@.. ",
" +@@@@@@@@@@@@@@@.. ",
" +@@@@@@@@@@@@@@@.. ",
" +@@@@@@@@@@@@@@@.. ",
" +@@@@@@@@@@@@@@@.. ",
" +@@@@@@@@@@@@@@@.. ",
" +................. ",
" .................. ",
"                    "};
